<?xml version="1.0" encoding="UTF-8"?>
<svg version="1.1" xmlns="http://www.w3.org/2000/svg" width="512" height="512">
<path d="M0 0 C1.30710937 -0.01417969 2.61421875 -0.02835938 3.9609375 -0.04296875 C7.4131865 0.17417698 9.48661574 0.89871334 12.625 2.1875 C14.65195921 2.00457255 14.65195921 2.00457255 16.625 1.3125 C23.91485954 -0.5616876 31.86325091 -0.80150635 39.125 1.3125 C42.46310036 2.51318247 42.46310036 2.51318247 44.88671875 1.265625 C50.81997122 -1.07043446 59.08515959 -0.85142442 65.20703125 0.9453125 C67.15966616 1.8936285 68.86700114 2.9180765 70.625 4.1875 C72.0171875 5.1465625 72.0171875 5.1465625 73.4375 6.125 C75.75955051 8.31436191 77.2007309 10.33896181 78.625 13.1875 C78.625 13.8475 78.625 14.5075 78.625 15.1875 C79.594375 15.105 80.56375 15.0225 81.5625 14.9375 C88.98733524 14.95253003 95.52335207 19.08585207 100.625 24.1875 C105.13878314 30.61096063 105.75180388 35.57926701 105.625 43.1875 C106.470625 43.373125 107.31625 43.55875 108.1875 43.75 C114.3629087 46.33244364 118.24654003 50.71011414 121.0625 56.75 C122.66861151 61.09711999 122.66407246 64.70716855 122.4375 69.3125 C122.25445025 74.42125205 122.4995792 76.94769486 126 80.75 C126.62648438 81.30816406 127.25296875 81.86632812 127.8984375 82.44140625 C131.74979908 86.33633527 131.9418432 90.72517839 132 96 C131.87589179 103.90983019 130.1890805 108.2481882 125.0625 114.125 C122.625 116.1875 122.625 116.1875 119.625 117.1875 C119.58020193 117.74945981 119.53540386 118.31141962 119.48924828 118.89040852 C118.82722376 126.33136513 117.58666602 133.62273347 116.26416016 140.97143555 C116.02227553 142.33093989 115.78070216 143.69049963 115.53941345 145.05010986 C114.888094 148.71377268 114.23183949 152.37653399 113.57417345 156.03906226 C113.16274492 158.33156037 112.75238368 160.62424693 112.34238815 162.91700172 C110.90998349 170.92691425 109.47347272 178.93607813 108.03320312 186.94458008 C106.69365165 194.3936908 105.36330872 201.84440675 104.03717768 209.29591721 C102.89494259 215.71169703 101.74619087 222.12628802 100.59241903 228.54000312 C99.90482929 232.36291278 99.21986641 236.18624678 98.54152298 240.01080894 C97.90383912 243.60487134 97.25803177 247.19738125 96.60606575 250.78887939 C96.25629815 252.72708404 95.91484673 254.66678372 95.57368469 256.60652161 C92.73486772 272.12751703 92.73486772 272.12751703 87.0625 276.5625 C86.46308594 277.04460937 85.86367188 277.52671875 85.24609375 278.0234375 C82.45630403 280.02670819 80.71156488 280.31627556 77.32476807 280.33467102 C76.42196106 280.34182632 75.51915405 280.34898163 74.58898926 280.35635376 C73.59572632 280.35904266 72.60246338 280.36173157 71.57910156 280.36450195 C70.53506165 280.37107315 69.49102173 280.37764435 68.41534424 280.38441467 C64.94877049 280.404179 61.48224013 280.41581742 58.015625 280.42578125 C56.24233448 280.43189454 56.24233448 280.43189454 54.43321991 280.43813133 C48.17585931 280.45900568 41.91852073 280.47330137 35.66113281 280.48266602 C29.19343944 280.49373179 22.72608998 280.52813017 16.25851822 280.56783772 C11.28968663 280.59396784 6.32093741 280.60235469 1.35204315 280.60594749 C-1.03219169 280.61082294 -3.41642263 280.62246402 -5.80059052 280.64098549 C-9.13784618 280.66529886 -12.47420656 280.66442571 -15.81152344 280.6574707 C-17.28927246 280.67668579 -17.28927246 280.67668579 -18.796875 280.69628906 C-25.74416544 280.64351427 -29.16565124 278.99279703 -34.43778133 274.38441944 C-36.68468794 271.83629574 -37.23013608 270.11360313 -37.96028137 266.81616211 C-38.19939051 265.74969452 -38.43849964 264.68322693 -38.68485451 263.58444214 C-39.86465566 257.77738218 -40.97011968 251.96259482 -42.01049805 246.12890625 C-42.25690535 244.76412461 -42.50366049 243.39940574 -42.75073242 242.03474426 C-43.41338952 238.36861816 -44.07098628 234.70160198 -44.72740912 231.03435516 C-45.41753474 227.18276724 -46.11177354 223.33192038 -46.80537415 219.48095703 C-47.96729304 213.02606938 -49.12587767 206.57059002 -50.2824707 200.11474609 C-51.6190911 192.65428202 -52.96115649 185.19481274 -54.30606622 177.73583889 C-55.60300461 170.54214905 -56.89601514 163.3477585 -58.1872654 156.15304565 C-58.73580281 153.0970838 -59.28573482 150.04137779 -59.83679771 146.98587036 C-60.48432005 143.39454758 -61.12840924 139.80262569 -61.76984406 136.2102108 C-62.11817768 134.2640583 -62.46993727 132.31851998 -62.8217926 130.3730011 C-63.02781097 129.21527695 -63.23382935 128.0575528 -63.4460907 126.86474609 C-63.71678391 125.35610489 -63.71678391 125.35610489 -63.99294567 123.81698608 C-64.375 121.1875 -64.375 121.1875 -64.375 117.1875 C-64.931875 116.960625 -65.48875 116.73375 -66.0625 116.5 C-70.56813463 113.94274791 -74.00062941 110.36041948 -75.8671875 105.46875 C-77.56214107 97.85449706 -77.58434484 89.59843613 -73.59765625 82.75390625 C-72.375 81.1875 -72.375 81.1875 -69.625 79.0625 C-66.30139319 74.81566907 -67.2620684 71.00664394 -67.4375 65.765625 C-67.31393549 58.69155682 -64.76859596 53.33673776 -60 48.1875 C-57.04125948 45.47159348 -54.35017063 44.06009843 -50.375 43.1875 C-50.436875 42.0325 -50.49875 40.8775 -50.5625 39.6875 C-50.52454383 32.51378385 -47.93372728 26.99211887 -43.125 21.7265625 C-37.36797964 16.6634687 -30.88151272 15.04586768 -23.375 15.1875 C-23.148125 14.465625 -22.92125 13.74375 -22.6875 13 C-20.10602382 7.46826534 -15.48485294 4.29784527 -10.375 1.1875 C-6.77617994 -0.01210669 -3.79362018 0.01863271 0 0 Z M-8.375 21.1875 C-9.24917514 23.46117617 -9.92537073 25.70039548 -10.50390625 28.06640625 C-11.64996329 30.85702944 -12.7022159 31.79618773 -15.375 33.1875 C-18.21484375 33.12109375 -18.21484375 33.12109375 -21.3125 32.625 C-26.15717821 32.00976987 -26.15717821 32.00976987 -30.5625 34 C-33.48605054 37.52842307 -33.56423366 39.64589227 -33.375 44.1875 C-33.045 44.8475 -32.715 45.5075 -32.375 46.1875 C-31.90970337 53.51592187 -31.90970337 53.51592187 -33.546875 55.87890625 C-36.62988828 58.08576404 -40.0964481 58.08704169 -43.78125 58.5625 C-46.65507043 59.25498685 -47.6610964 59.81228311 -49.375 62.1875 C-50.28767199 64.84900454 -50.56736848 67.3811834 -50.375 70.1875 C-48.63979399 72.69390868 -47.36001414 73.77990794 -44.5625 74.9375 C-42.16179253 75.26687498 -42.16179253 75.26687498 -38.875 75.0625 C-35.375 75.1875 -35.375 75.1875 -32.9375 76.1875 C-30.82491358 78.89161062 -30.97559873 80.89911275 -31.0390625 84.25 C-31.375 86.1875 -31.375 86.1875 -33.375 89.1875 C-40.129556 91.59984143 -46.62977301 91.58871739 -53.53125 89.55078125 C-55.55659421 88.92664118 -55.55659421 88.92664118 -57.625 90.6875 C-59.98359399 94.05691998 -59.88788911 96.15765702 -59.375 100.1875 C-57.54384793 102.80343153 -56.46531634 103.15739455 -53.375 104.1875 C-51.21764154 104.28577315 -49.05732439 104.32252251 -46.8977356 104.32794189 C-46.23716467 104.33091302 -45.57659374 104.33388414 -44.89600551 104.3369453 C-42.67821616 104.34563045 -40.4604808 104.34714038 -38.24267578 104.34863281 C-36.65430587 104.35326108 -35.06593708 104.35828575 -33.47756958 104.36367798 C-29.15936783 104.37680221 -24.84118163 104.38324685 -20.52296305 104.38768864 C-17.82583182 104.390619 -15.12870486 104.39472372 -12.43157578 104.39919281 C-3.99485358 104.41286709 4.4418589 104.42253439 12.87859142 104.4263947 C22.62145974 104.43087703 32.36418789 104.44843332 42.10701358 104.4773953 C49.63575525 104.49899977 57.16445745 104.5090983 64.69322979 104.51043582 C69.19097666 104.51148463 73.68859174 104.51740867 78.186306 104.53525543 C82.41671016 104.55171506 86.64688316 104.55390194 90.87730789 104.54511642 C92.42972176 104.54434495 93.98214796 104.54870337 95.53453064 104.55857468 C97.6545526 104.57126469 99.77375216 104.56543427 101.89376831 104.55499268 C103.67297574 104.55719252 103.67297574 104.55719252 105.48812675 104.5594368 C109.25034273 104.11335356 111.92691692 102.88558308 114.625 100.1875 C114.99131133 96.30459989 115.15789959 94.00734552 113 90.6875 C109.72747955 88.62064498 108.39165738 89.36568384 104.625 90.1875 C97.89250528 90.67565672 92.56678542 90.54590046 86.625 87.1875 C85.07913124 84.09576248 85.33140479 81.59320448 85.625 78.1875 C87.26953125 75.9609375 87.26953125 75.9609375 89.625 74.1875 C92.74448024 73.91624085 95.63269435 74.18811555 98.75 74.4375 C101.72723509 74.42949019 101.72723509 74.42949019 104.00390625 72.44140625 C105.76240352 70.36807358 105.76240352 70.36807358 105.90234375 68.15234375 C105.73412109 67.14880859 105.73412109 67.14880859 105.5625 66.125 C105.46839844 65.45339844 105.37429688 64.78179687 105.27734375 64.08984375 C104.4535275 61.68745744 103.67580901 60.69531581 101.625 59.1875 C98.82838502 58.5515228 96.06598641 58.24309922 93.21875 57.91015625 C90.625 57.1875 90.625 57.1875 88.796875 55.34765625 C87.10825506 52.23496683 87.36738967 49.6652395 87.625 46.1875 C87.955 45.5275 88.285 44.8675 88.625 44.1875 C89.03754274 40.47461536 88.88718686 38.64128496 87 35.375 C84.05289455 32.66056077 82.6064511 32.34063273 78.625 32.1875 C77.2689841 32.42726705 75.91482668 32.67773103 74.5625 32.9375 C70.625 33.1875 70.625 33.1875 67.75 31.1875 C65.625 28.1875 65.625 28.1875 64.625 24.625 C63.41982295 20.4822039 62.37285043 19.26963913 58.625 17.1875 C55.18867222 16.6147787 52.85401979 16.41367273 49.83203125 18.31640625 C48.65622739 19.22745958 47.48173694 20.14021063 46.30859375 21.0546875 C44.625 22.1875 44.625 22.1875 41.625 22.8125 C38.58010761 22.17814742 37.56458976 21.54046529 35.1875 19.6875 C32.55423464 17.66191126 31.55480955 17.17496599 28.125 16.5625 C24.68496803 17.17679142 23.74310419 17.6421061 21.125 19.6875 C18.50689581 21.7328939 17.56503197 22.19820858 14.125 22.8125 C10.13957278 22.10081657 8.47836246 20.75259019 5.3828125 18.31640625 C0.23336935 15.00931943 -4.67212433 16.97033604 -8.375 21.1875 Z M-46.375 120.1875 C-45.5913344 128.25822062 -45.5913344 128.25822062 -44.39503479 136.20904541 C-44.2030249 137.29113281 -44.01101501 138.37322021 -43.81318665 139.48809814 C-43.60485703 140.63961365 -43.3965274 141.79112915 -43.18188477 142.97753906 C-42.9606192 144.2178186 -42.73935364 145.45809814 -42.51138306 146.73596191 C-41.90956361 150.10822 -41.30291963 153.47959267 -40.69510007 156.85077381 C-40.1866008 159.67375109 -39.68054891 162.49716484 -39.17449421 165.3205812 C-37.98070168 171.9809456 -36.78302551 178.64060329 -35.58276367 185.29980469 C-34.34678888 192.15747475 -33.11687812 199.01621242 -31.89001042 205.87551713 C-30.8333622 211.78208492 -29.77323378 217.68802059 -28.71026462 223.59345412 C-28.07673462 227.11319566 -27.44444578 230.63314798 -26.81540108 234.15369415 C-26.11452515 238.07506542 -25.40636971 241.99510279 -24.69750977 245.91503906 C-24.49120438 247.07465149 -24.28489899 248.23426392 -24.07234192 249.42901611 C-23.87751221 250.49982422 -23.6826825 251.57063232 -23.48194885 252.67388916 C-23.31548135 253.59928623 -23.14901384 254.5246833 -22.97750187 255.47812271 C-22.319775 258.43584006 -21.33315951 261.31302146 -20.375 264.1875 C-7.175 264.1875 6.025 264.1875 19.625 264.1875 C19.625 216.6675 19.625 169.1475 19.625 120.1875 C-2.155 120.1875 -23.935 120.1875 -46.375 120.1875 Z M35.625 120.1875 C35.625 167.7075 35.625 215.2275 35.625 264.1875 C48.825 264.1875 62.025 264.1875 75.625 264.1875 C76.99017783 260.09196651 78.02310298 256.61850516 78.77664185 252.45042419 C78.98133087 251.33031952 79.1860199 250.21021484 79.39691162 249.0561676 C79.61413879 247.84194626 79.83136597 246.62772491 80.05517578 245.37670898 C80.28955353 244.0866394 80.52393127 242.79656982 80.76541138 241.46740723 C81.40578497 237.94142052 82.0405653 234.4144485 82.67408609 230.88722491 C83.3387154 227.19085881 84.00770347 223.49528121 84.67599487 219.79957581 C85.79711599 213.59555295 86.91450747 207.39086679 88.02978516 201.18579102 C89.3184847 194.01616576 90.61353073 186.84770843 91.9118768 179.67982429 C93.02765929 173.5188973 94.14002887 167.35736124 95.24954975 161.1953035 C95.91170894 157.51781259 96.57503443 153.84054258 97.24142838 150.16381645 C97.98383589 146.06640073 98.71908091 141.96773128 99.45361328 137.86889648 C99.67488892 136.65265091 99.89616455 135.43640533 100.12414551 134.18330383 C100.32319489 133.06601898 100.52224426 131.94873413 100.72732544 130.79759216 C100.90171206 129.8292063 101.07609867 128.86082045 101.25576973 127.86308956 C101.73892004 124.81214776 101.73892004 124.81214776 101.625 120.1875 C79.845 120.1875 58.065 120.1875 35.625 120.1875 Z " fill="#000000" transform="translate(380.375,183.8125)"/>
<path d="M0 0 C0.75638711 -0.00350607 1.51277423 -0.00701215 2.29208216 -0.01062447 C4.83515579 -0.01995323 7.37800116 -0.01501137 9.9210844 -0.01015663 C11.759361 -0.01389215 13.59763601 -0.01849327 15.4359085 -0.02388728 C20.49428691 -0.03614488 25.55259933 -0.03585356 30.61098921 -0.03349853 C36.0637401 -0.03309106 41.51646964 -0.04412281 46.96921062 -0.05361366 C57.6547246 -0.0702397 68.34021651 -0.07572393 79.02574233 -0.07683842 C87.70976914 -0.07778812 96.39378865 -0.08189452 105.07781315 -0.08823967 C129.68828817 -0.10585635 154.29874675 -0.11509 178.909228 -0.11357872 C179.90431272 -0.11351889 179.90431272 -0.11351889 180.91950017 -0.11345784 C182.26103627 -0.11337697 183.60257238 -0.11329337 184.94410849 -0.11320706 C205.8164818 -0.11198153 226.68879012 -0.12699458 247.56114483 -0.15435219 C271.00866959 -0.1850724 294.45615872 -0.20225938 317.90370578 -0.20042574 C330.31962197 -0.19976121 342.7354649 -0.20528116 355.15136433 -0.22678185 C365.72195607 -0.24496941 376.29244132 -0.24936091 386.86304191 -0.235763 C392.25742712 -0.22922116 397.65160787 -0.22916007 403.04597378 -0.2464695 C407.98386355 -0.26215139 412.92138593 -0.25938656 417.85926648 -0.24190123 C419.6459248 -0.23882056 421.43261021 -0.24250372 423.21923659 -0.25362138 C441.17507946 -0.35795818 441.17507946 -0.35795818 448.68394756 6.22211266 C449.22277569 6.87308922 449.76160381 7.52406578 450.31676006 8.19476891 C450.87105694 8.84316734 451.42535381 9.49156578 451.99644756 10.15961266 C454.76226279 14.17378232 455.69208194 17.72342197 455.6822691 22.56606102 C455.68639309 24.14140366 455.68639309 24.14140366 455.6906004 25.7485714 C455.68340984 26.89008659 455.67621929 28.03160179 455.66881084 29.20770836 C455.6691029 30.41788124 455.66939495 31.62805412 455.66969585 32.87489891 C455.66854293 36.18451304 455.65852657 39.49387631 455.64454794 42.80344605 C455.63202816 46.26543768 455.6308691 49.72743281 455.62849712 53.18944359 C455.62228602 59.74126314 455.60588022 66.29301578 455.58579814 72.8448059 C455.56342764 80.3054718 455.55244282 87.76614093 455.54240727 95.22683203 C455.52151365 110.57034971 455.48634487 125.91380067 455.44176006 141.25726891 C453.52047225 140.68934106 451.60484391 140.10224713 449.69176006 139.50726891 C448.62441631 139.18242516 447.55707256 138.85758141 446.45738506 138.52289391 C443.22888799 137.16792881 441.56159087 136.02945931 439.44176006 133.25726891 C438.939538 131.07675076 438.939538 131.07675076 438.93623638 128.67183495 C438.92521389 127.7564193 438.9141914 126.84100365 438.90283489 125.89784813 C438.91100735 124.90085396 438.9191798 123.90385979 438.92759991 122.87665367 C438.91691227 121.29311592 438.91691227 121.29311592 438.90600872 119.67758751 C438.88669426 116.18442757 438.89501408 112.69187095 438.90269756 109.19867516 C438.89279492 106.77255426 438.88085533 104.3464409 438.86696148 101.92033958 C438.83454916 95.52879205 438.82420295 89.13741593 438.820117 82.7457943 C438.81137206 72.51835688 438.77590442 62.29106068 438.72794247 52.06373978 C438.71534002 48.4890819 438.71611708 44.91460141 438.7182188 41.33992577 C438.7116385 39.14904201 438.70463224 36.95815947 438.69713116 34.76727867 C438.70125515 33.77230873 438.70537914 32.77733879 438.70962811 31.75221825 C438.82062276 25.20033158 438.82062276 25.20033158 436.44176006 19.25726891 C432.30547789 17.09870318 428.71155522 17.00673322 424.09378338 17.00558662 C423.36013471 17.00267974 422.62648604 16.99977286 421.87060559 16.99677789 C419.40490147 16.98946171 416.93944492 16.99642876 414.47374249 17.00330162 C412.69107562 17.00099783 410.9084097 16.99782186 409.12574577 16.99384713 C404.22118997 16.98547928 399.31671175 16.98963344 394.41215563 16.99581957 C389.12511284 17.00033492 383.83808362 16.99336486 378.55104351 16.98785973 C368.19138721 16.97895427 357.83175985 16.98089286 347.4721024 16.98668501 C339.05454568 16.99119696 330.63699709 16.99181642 322.21943951 16.98963737 C321.02260451 16.98933091 319.82576952 16.98902444 318.5926668 16.98870869 C316.16151913 16.98806926 313.73037145 16.98742083 311.29922378 16.98676351 C288.48829779 16.98105684 265.67738785 16.98762339 242.8664645 16.99836424 C223.28250549 17.00730005 203.6985702 17.00574811 184.11461163 16.99652672 C161.38676628 16.98583004 138.65893501 16.98160619 115.93108749 16.98775125 C113.50875187 16.98838836 111.08641625 16.9890171 108.66408062 16.98963737 C106.87620492 16.9901002 106.87620492 16.9901002 105.05221051 16.99057238 C96.64221114 16.99230113 88.23222069 16.98938035 79.82222271 16.98467827 C69.5769208 16.97907612 59.33164954 16.98057183 49.08635116 16.99123976 C43.85644165 16.99650545 38.62658331 16.99853795 33.39667416 16.99194145 C28.6126161 16.98599845 23.82865681 16.98922978 19.04460776 16.99989656 C17.31049498 17.0021376 15.57637393 17.0009786 13.84226644 16.99614498 C11.49130336 16.99009272 9.1406818 16.99627165 6.78973675 17.00558662 C5.48203225 17.00591133 4.17432775 17.00623603 2.82699585 17.00657058 C-0.44734984 17.24905679 -2.66352725 17.74058679 -5.55823994 19.25726891 C-8.32252721 23.60432641 -7.83731656 28.65321372 -7.81220722 33.63251305 C-7.8153272 34.58064149 -7.81844718 35.52876993 -7.82166171 36.50562954 C-7.82964296 39.68462453 -7.8233175 42.86342872 -7.817029 46.04242516 C-7.8197388 48.32073643 -7.82329967 50.59904684 -7.82764912 52.87735558 C-7.83677665 59.06730225 -7.83322733 65.25718235 -7.82689095 71.4471302 C-7.82183286 77.92038466 -7.82652187 84.39363337 -7.82966328 90.86688805 C-7.83353674 102.43488914 -7.82731539 114.00285616 -7.8171446 125.57085192 C-7.80820916 136.05846167 -7.80976123 146.54602714 -7.81898212 157.03363609 C-7.82968626 169.21394462 -7.83366859 181.3942184 -7.8277576 193.57453251 C-7.82463705 200.0216961 -7.82423089 206.46882919 -7.83083057 212.91599083 C-7.83660113 218.97671233 -7.83261237 225.03735008 -7.82104206 231.09806252 C-7.81839394 233.32451933 -7.81916316 235.55098318 -7.82356739 237.77743721 C-7.82901816 240.8123954 -7.82219422 243.84708384 -7.81220722 246.88202477 C-7.81666867 247.76674996 -7.82113011 248.65147516 -7.82572675 249.56301022 C-7.84620618 255.68640269 -7.84620618 255.68640269 -5.55823994 261.25726891 C-2.14178585 262.92930969 0.6317081 263.50879099 4.41424561 263.51898193 C5.39606821 263.52644743 6.37789082 263.53391292 7.38946563 263.54160464 C8.99598118 263.53870254 8.99598118 263.53870254 10.63495159 263.53574181 C11.77853482 263.54153421 12.92211806 263.54732661 14.10035533 263.55329454 C17.94050366 263.5703288 21.78053205 263.57317404 25.62071514 263.57611656 C28.37019428 263.58430918 31.11965934 263.59549318 33.86912823 263.60655785 C39.79277125 263.6288287 45.716397 263.64384303 51.64007282 263.65392494 C60.20470073 263.66851217 68.76926847 263.69404912 77.33386108 263.72225623 C91.22943061 263.76772342 105.12500881 263.80433853 119.02061749 263.83539391 C132.51867983 263.86557974 146.01672099 263.89993017 159.51475811 263.93988609 C160.34681626 263.94234764 161.17887441 263.94480919 162.03614644 263.94734533 C166.21034935 263.95971994 170.38455202 263.97217647 174.55875456 263.98467374 C209.18639398 264.08824044 243.81405809 264.17744406 278.44176006 264.25726891 C278.78071662 265.98534209 279.11267531 267.71478865 279.44176006 269.44476891 C279.62738506 270.40769859 279.81301006 271.37062828 280.00426006 272.36273766 C280.41053619 275.0506895 280.52109578 277.5449791 280.44176006 280.25726891 C243.88845998 280.34883165 207.33518001 280.41931129 170.78178886 280.46153022 C166.46597178 280.46653303 162.15015493 280.47171032 157.83433819 280.47699547 C156.97513962 280.47804471 156.11594105 280.47909395 155.23070616 280.48017499 C141.32011062 280.49757849 127.40958123 280.52911588 113.49902493 280.56588009 C99.22467378 280.60329103 84.95035727 280.62550508 70.67595911 280.63362288 C61.86842617 280.63911034 53.06108021 280.6564397 44.25360483 280.68893477 C38.21333953 280.71008455 32.17317084 280.71646791 26.13287121 280.71127442 C22.64829339 280.70871333 19.16404221 280.71262909 15.67952251 280.73409081 C11.89855068 280.75397871 8.11838015 280.74921123 4.33738995 280.73828697 C3.24009957 280.74993834 2.14280919 280.7615897 1.01226759 280.77359414 C-6.60469047 280.71407086 -11.91588188 279.44909138 -17.80042744 274.29242516 C-18.33925556 273.64144859 -18.87808369 272.99047203 -19.43323994 272.31976891 C-19.98753681 271.67137047 -20.54183369 271.02297203 -21.11292744 270.35492516 C-24.90308582 264.85407367 -24.84703433 259.83650877 -24.82566547 253.370718 C-24.83019659 252.36753652 -24.8347277 251.36435505 -24.83939612 250.33077413 C-24.85206824 246.96532403 -24.85041792 243.60003517 -24.84876728 240.23456383 C-24.85475077 237.82318984 -24.8615559 235.41181777 -24.86912251 233.00044823 C-24.88497051 227.1276243 -24.8912317 221.25483825 -24.89234726 215.38199731 C-24.89329815 210.60719813 -24.89741046 205.83241218 -24.90374851 201.05761719 C-24.92135905 187.51464453 -24.93058772 173.97170355 -24.92908756 160.42871936 C-24.92900765 159.69884726 -24.92892774 158.96897515 -24.92884541 158.2169857 C-24.92876364 157.48622046 -24.92868188 156.75545522 -24.92859764 156.00254557 C-24.92778488 144.16153682 -24.94692063 132.32065531 -24.97512214 120.47968336 C-25.00386315 108.31602389 -25.01766175 96.15242645 -25.01593459 83.98873216 C-25.01527109 77.1619268 -25.02074571 70.33525482 -25.04229069 63.50848007 C-25.06242572 57.08739556 -25.0618163 50.66651989 -25.04725742 44.24541855 C-25.04516477 41.88959912 -25.04989725 39.53376218 -25.06197834 37.17797279 C-25.07741161 33.95990718 -25.06813444 30.74281535 -25.05271626 27.52477074 C-25.06300338 26.59431079 -25.07329051 25.66385084 -25.08388937 24.70519513 C-25.00922033 17.64419949 -23.28330953 12.36699047 -18.59339619 7.01508141 C-17.94241962 6.47625328 -17.29144306 5.93742516 -16.62073994 5.38226891 C-15.9723415 4.82797203 -15.32394306 4.27367516 -14.65589619 3.70258141 C-9.93276091 0.44827963 -5.61890187 -0.03299062 0 0 Z " fill="#000000" transform="translate(24.558239936828613,47.74273109436035)"/>
<path d="M0 0 C4.82741227 1.27831147 8.65844646 4.45758754 12.63867188 7.37109375 C15.09670819 9.15171849 17.60418044 10.85667506 20.11132812 12.56713867 C22.1566831 13.96302897 24.19623629 15.36703502 26.234375 16.7734375 C30.27829331 19.5629042 34.32627026 22.34642953 38.375 25.12890625 C39.69661916 26.03775376 41.01823373 26.94660795 42.33984375 27.85546875 C45.12250227 29.76867414 47.9065521 31.67983584 50.69140625 33.58984375 C51.40232422 34.07775391 52.11324219 34.56566406 52.84570312 35.06835938 C54.19168815 35.99207459 55.53801493 36.9152921 56.88476562 37.83789062 C58.71829546 39.09664622 60.54718501 40.36187021 62.375 41.62890625 C63.02968262 42.07782227 63.68436523 42.52673828 64.35888672 42.98925781 C69.26061183 46.4001299 69.26061183 46.4001299 70.375 48.62890625 C70.93410987 54.31318998 70.93410987 54.31318998 70.375 56.62890625 C66.50900077 61.29107165 61.56685197 64.41365083 56.5625 67.75390625 C54.85141723 68.90994127 53.14048201 70.06619469 51.4296875 71.22265625 C50.57729492 71.79628906 49.72490234 72.36992187 48.84667969 72.9609375 C45.27792493 75.3692477 41.73197512 77.81006759 38.1875 80.25390625 C36.8867803 81.14852699 35.58599918 82.04305845 34.28515625 82.9375 C30.91376953 85.25718369 27.54485461 87.58043743 24.17651367 89.90454102 C22.16813195 91.28672256 20.15459901 92.66114126 18.140625 94.03515625 C15.7261379 95.6857517 13.34436176 97.37015709 10.984375 99.09765625 C2.55556669 105.11218278 2.55556669 105.11218278 -2.125 105.37890625 C-6.19283511 104.5072273 -7.22270556 103.97792169 -9.625 100.62890625 C-10.22028482 97.56363406 -10.17133252 94.54026847 -10.14257812 91.42578125 C-10.1495874 90.49527954 -10.15659668 89.56477783 -10.16381836 88.6060791 C-10.18142461 85.53005132 -10.16976606 82.4549434 -10.15625 79.37890625 C-10.15894415 77.24186018 -10.16282593 75.10481531 -10.16784668 72.96777344 C-10.1737453 68.48881358 -10.16516683 64.01017278 -10.14648438 59.53125 C-10.12369487 53.78748173 -10.13681597 48.04446105 -10.16077423 42.30072021 C-10.17522221 37.88780068 -10.17063076 33.47505865 -10.16026306 29.06213379 C-10.15759302 26.94421297 -10.16087524 24.82627608 -10.17018127 22.70837402 C-10.18033018 19.7491583 -10.1648686 16.79115646 -10.14257812 13.83203125 C-10.15067505 12.95502563 -10.15877197 12.07802002 -10.16711426 11.17443848 C-10.08463317 5.26967641 -10.08463317 5.26967641 -7.81140137 2.10058594 C-5.21399571 0.35225683 -3.13401152 -0.17859257 0 0 Z M6.375 24.62890625 C6.375 43.10890625 6.375 61.58890625 6.375 80.62890625 C14.91713776 75.22538531 14.91713776 75.22538531 23.26953125 69.5859375 C24.24470703 68.90466797 25.21988281 68.22339844 26.22460938 67.52148438 C27.69124023 66.4918457 27.69124023 66.4918457 29.1875 65.44140625 C41.26418759 56.98694429 41.26418759 56.98694429 46.375 53.62890625 C45.01528719 49.54976783 42.28569471 48.33193876 38.8125 46.12890625 C37.44449608 45.2408397 36.07733725 44.35147028 34.7109375 43.4609375 C33.99905273 42.99896973 33.28716797 42.53700195 32.55371094 42.06103516 C28.3181349 39.27687009 24.16704076 36.36876455 20.00756836 33.47265625 C15.53341676 30.37476415 11.00290134 27.52134459 6.375 24.62890625 Z " fill="#000000" transform="translate(209.625,135.37109375)"/>
<path d="M0 0 C1.25512894 -0.0127597 2.51025787 -0.02551941 3.80342102 -0.03866577 C5.16606491 -0.04172396 6.52871088 -0.04395143 7.89135742 -0.04541016 C9.29994337 -0.05184381 10.708528 -0.05857259 12.11711121 -0.06558228 C15.06671239 -0.07753787 18.01619662 -0.08126496 20.96582031 -0.08007812 C24.72840734 -0.07987521 28.49023675 -0.10715568 32.25264454 -0.14162254 C35.16191488 -0.16396384 38.07100509 -0.16791345 40.9803524 -0.16685867 C42.3665191 -0.1692046 43.75269153 -0.1779709 45.13877296 -0.19352341 C54.08591553 -0.28450476 60.69995285 -0.01065968 67.70776367 6.03662109 C68.37678711 6.87386719 68.37678711 6.87386719 69.05932617 7.72802734 C69.75155273 8.56140625 69.75155273 8.56140625 70.45776367 9.41162109 C74.64769862 15.82996093 74.0565608 22.74547446 74.05493164 30.11987305 C74.05932032 32.35005205 74.09572203 34.57827405 74.13354492 36.80810547 C74.13941106 38.23062478 74.14338181 39.65315343 74.14526367 41.07568359 C74.15348145 42.3635376 74.16169922 43.6513916 74.17016602 44.97827148 C73.60664411 48.82013164 72.74119002 49.98310426 69.68432617 52.29052734 C67.68432617 52.82177734 67.68432617 52.82177734 65.68432617 52.79052734 C65.02432617 52.80083984 64.36432617 52.81115234 63.68432617 52.82177734 C60.76767322 52.0470414 59.59158282 50.59714177 57.68432617 48.29052734 C57.17016602 45.71264648 57.17016602 45.71264648 57.14526367 42.82568359 C57.12206055 41.77832031 57.09885742 40.73095703 57.07495117 39.65185547 C57.0672168 38.01893555 57.0672168 38.01893555 57.05932617 36.35302734 C57.03371641 34.19796568 57.00014444 32.04298068 56.95776367 29.88818359 C56.95180176 28.93435791 56.94583984 27.98053223 56.93969727 26.99780273 C56.65805758 24.01204508 56.11420941 21.92915743 54.68432617 19.29052734 C51.65736565 17.36304153 49.27103527 17.03480079 45.71972656 17.01586914 C44.73512955 17.00633713 43.75053253 16.99680511 42.73609924 16.98698425 C41.67874069 16.98789566 40.62138214 16.98880707 39.53198242 16.98974609 C38.43969833 16.98546097 37.34741425 16.98117584 36.22203064 16.97676086 C33.91300143 16.97102022 31.60395414 16.97051534 29.29492188 16.97485352 C25.76360192 16.97801234 22.23312061 16.95455407 18.7019043 16.92919922 C16.45776473 16.92692609 14.21362291 16.92622279 11.96948242 16.92724609 C10.9141481 16.91803635 9.85881378 16.9088266 8.77149963 16.89933777 C1.68329129 16.83500463 1.68329129 16.83500463 -4.31567383 20.29052734 C-5.35368518 23.4045614 -5.4550975 25.64493214 -5.49145508 28.91162109 C-5.51530273 30.01183594 -5.53915039 31.11205078 -5.5637207 32.24560547 C-5.60661371 34.56312757 -5.6379054 36.88089405 -5.6574707 39.19873047 C-5.68518555 40.30023438 -5.71290039 41.40173828 -5.74145508 42.53662109 C-5.7560376 43.54394287 -5.77062012 44.55126465 -5.78564453 45.58911133 C-6.44883113 48.96919409 -7.66145119 50.16423353 -10.31567383 52.29052734 C-12.31567383 52.82177734 -12.31567383 52.82177734 -14.31567383 52.79052734 C-15.30567383 52.80599609 -15.30567383 52.80599609 -16.31567383 52.82177734 C-19.29180543 52.03124239 -20.41183589 50.69614447 -22.31567383 48.29052734 C-22.83325195 45.02587891 -22.83325195 45.02587891 -22.84692383 41.18115234 C-22.85075073 40.49551208 -22.85457764 39.80987183 -22.85852051 39.10345459 C-22.86123694 37.654404 -22.85389426 36.20530415 -22.8371582 34.75634766 C-22.81587106 32.5608695 -22.83689504 30.36871222 -22.86254883 28.17333984 C-22.88061929 19.58074297 -22.43142322 13.06000874 -16.56958008 6.26708984 C-16.01141602 5.82107422 -15.45325195 5.37505859 -14.87817383 4.91552734 C-14.32258789 4.45404297 -13.76700195 3.99255859 -13.19458008 3.51708984 C-8.87735175 0.69877447 -5.11165945 0.03537125 0 0 Z " fill="#000000" transform="translate(246.315673828125,411.70947265625)"/>
<path d="M0 0 C1.25512894 -0.0127597 2.51025787 -0.02551941 3.80342102 -0.03866577 C5.16606491 -0.04172396 6.52871088 -0.04395143 7.89135742 -0.04541016 C9.29994337 -0.05184381 10.708528 -0.05857259 12.11711121 -0.06558228 C15.06671239 -0.07753787 18.01619662 -0.08126496 20.96582031 -0.08007812 C24.72840734 -0.07987521 28.49023675 -0.10715568 32.25264454 -0.14162254 C35.16191488 -0.16396384 38.07100509 -0.16791345 40.9803524 -0.16685867 C42.3665191 -0.1692046 43.75269153 -0.1779709 45.13877296 -0.19352341 C54.08591553 -0.28450476 60.69995285 -0.01065968 67.70776367 6.03662109 C68.37678711 6.87386719 68.37678711 6.87386719 69.05932617 7.72802734 C69.75155273 8.56140625 69.75155273 8.56140625 70.45776367 9.41162109 C74.64769862 15.82996093 74.0565608 22.74547446 74.05493164 30.11987305 C74.05932032 32.35005205 74.09572203 34.57827405 74.13354492 36.80810547 C74.13941106 38.23062478 74.14338181 39.65315343 74.14526367 41.07568359 C74.15348145 42.3635376 74.16169922 43.6513916 74.17016602 44.97827148 C73.60664411 48.82013164 72.74119002 49.98310426 69.68432617 52.29052734 C67.68432617 52.82177734 67.68432617 52.82177734 65.68432617 52.79052734 C65.02432617 52.80083984 64.36432617 52.81115234 63.68432617 52.82177734 C60.76767322 52.0470414 59.59158282 50.59714177 57.68432617 48.29052734 C57.17016602 45.71264648 57.17016602 45.71264648 57.14526367 42.82568359 C57.12206055 41.77832031 57.09885742 40.73095703 57.07495117 39.65185547 C57.0672168 38.01893555 57.0672168 38.01893555 57.05932617 36.35302734 C57.03371641 34.19796568 57.00014444 32.04298068 56.95776367 29.88818359 C56.95180176 28.93435791 56.94583984 27.98053223 56.93969727 26.99780273 C56.65805758 24.01204508 56.11420941 21.92915743 54.68432617 19.29052734 C51.65736565 17.36304153 49.27103527 17.03480079 45.71972656 17.01586914 C44.73512955 17.00633713 43.75053253 16.99680511 42.73609924 16.98698425 C41.67874069 16.98789566 40.62138214 16.98880707 39.53198242 16.98974609 C38.43969833 16.98546097 37.34741425 16.98117584 36.22203064 16.97676086 C33.91300143 16.97102022 31.60395414 16.97051534 29.29492188 16.97485352 C25.76360192 16.97801234 22.23312061 16.95455407 18.7019043 16.92919922 C16.45776473 16.92692609 14.21362291 16.92622279 11.96948242 16.92724609 C10.9141481 16.91803635 9.85881378 16.9088266 8.77149963 16.89933777 C1.68329129 16.83500463 1.68329129 16.83500463 -4.31567383 20.29052734 C-5.35368518 23.4045614 -5.4550975 25.64493214 -5.49145508 28.91162109 C-5.51530273 30.01183594 -5.53915039 31.11205078 -5.5637207 32.24560547 C-5.60661371 34.56312757 -5.6379054 36.88089405 -5.6574707 39.19873047 C-5.68518555 40.30023438 -5.71290039 41.40173828 -5.74145508 42.53662109 C-5.7560376 43.54394287 -5.77062012 44.55126465 -5.78564453 45.58911133 C-6.44883113 48.96919409 -7.66145119 50.16423353 -10.31567383 52.29052734 C-12.31567383 52.82177734 -12.31567383 52.82177734 -14.31567383 52.79052734 C-15.30567383 52.80599609 -15.30567383 52.80599609 -16.31567383 52.82177734 C-19.29180543 52.03124239 -20.41183589 50.69614447 -22.31567383 48.29052734 C-22.83325195 45.02587891 -22.83325195 45.02587891 -22.84692383 41.18115234 C-22.85075073 40.49551208 -22.85457764 39.80987183 -22.85852051 39.10345459 C-22.86123694 37.654404 -22.85389426 36.20530415 -22.8371582 34.75634766 C-22.81587106 32.5608695 -22.83689504 30.36871222 -22.86254883 28.17333984 C-22.88061929 19.58074297 -22.43142322 13.06000874 -16.56958008 6.26708984 C-16.01141602 5.82107422 -15.45325195 5.37505859 -14.87817383 4.91552734 C-14.32258789 4.45404297 -13.76700195 3.99255859 -13.19458008 3.51708984 C-8.87735175 0.69877447 -5.11165945 0.03537125 0 0 Z " fill="#000000" transform="translate(134.315673828125,411.70947265625)"/>
<path d="M0 0 C1.25512894 -0.0127597 2.51025787 -0.02551941 3.80342102 -0.03866577 C5.16606491 -0.04172396 6.52871088 -0.04395143 7.89135742 -0.04541016 C9.29994337 -0.05184381 10.708528 -0.05857259 12.11711121 -0.06558228 C15.06671239 -0.07753787 18.01619662 -0.08126496 20.96582031 -0.08007812 C24.72840734 -0.07987521 28.49023675 -0.10715568 32.25264454 -0.14162254 C35.16191488 -0.16396384 38.07100509 -0.16791345 40.9803524 -0.16685867 C42.3665191 -0.1692046 43.75269153 -0.1779709 45.13877296 -0.19352341 C54.08591553 -0.28450476 60.69995285 -0.01065968 67.70776367 6.03662109 C68.37678711 6.87386719 68.37678711 6.87386719 69.05932617 7.72802734 C69.75155273 8.56140625 69.75155273 8.56140625 70.45776367 9.41162109 C74.64769862 15.82996093 74.0565608 22.74547446 74.05493164 30.11987305 C74.05932032 32.35005205 74.09572203 34.57827405 74.13354492 36.80810547 C74.13941106 38.23062478 74.14338181 39.65315343 74.14526367 41.07568359 C74.15348145 42.3635376 74.16169922 43.6513916 74.17016602 44.97827148 C73.60664411 48.82013164 72.74119002 49.98310426 69.68432617 52.29052734 C67.68432617 52.82177734 67.68432617 52.82177734 65.68432617 52.79052734 C65.02432617 52.80083984 64.36432617 52.81115234 63.68432617 52.82177734 C60.76767322 52.0470414 59.59158282 50.59714177 57.68432617 48.29052734 C57.17016602 45.71264648 57.17016602 45.71264648 57.14526367 42.82568359 C57.12206055 41.77832031 57.09885742 40.73095703 57.07495117 39.65185547 C57.0672168 38.01893555 57.0672168 38.01893555 57.05932617 36.35302734 C57.03371641 34.19796568 57.00014444 32.04298068 56.95776367 29.88818359 C56.95180176 28.93435791 56.94583984 27.98053223 56.93969727 26.99780273 C56.65805758 24.01204508 56.11420941 21.92915743 54.68432617 19.29052734 C51.65736565 17.36304153 49.27103527 17.03480079 45.71972656 17.01586914 C44.73512955 17.00633713 43.75053253 16.99680511 42.73609924 16.98698425 C41.67874069 16.98789566 40.62138214 16.98880707 39.53198242 16.98974609 C38.43969833 16.98546097 37.34741425 16.98117584 36.22203064 16.97676086 C33.91300143 16.97102022 31.60395414 16.97051534 29.29492188 16.97485352 C25.76360192 16.97801234 22.23312061 16.95455407 18.7019043 16.92919922 C16.45776473 16.92692609 14.21362291 16.92622279 11.96948242 16.92724609 C10.9141481 16.91803635 9.85881378 16.9088266 8.77149963 16.89933777 C1.68329129 16.83500463 1.68329129 16.83500463 -4.31567383 20.29052734 C-5.35368518 23.4045614 -5.4550975 25.64493214 -5.49145508 28.91162109 C-5.51530273 30.01183594 -5.53915039 31.11205078 -5.5637207 32.24560547 C-5.60661371 34.56312757 -5.6379054 36.88089405 -5.6574707 39.19873047 C-5.68518555 40.30023438 -5.71290039 41.40173828 -5.74145508 42.53662109 C-5.7560376 43.54394287 -5.77062012 44.55126465 -5.78564453 45.58911133 C-6.44883113 48.96919409 -7.66145119 50.16423353 -10.31567383 52.29052734 C-12.31567383 52.82177734 -12.31567383 52.82177734 -14.31567383 52.79052734 C-15.30567383 52.80599609 -15.30567383 52.80599609 -16.31567383 52.82177734 C-19.29180543 52.03124239 -20.41183589 50.69614447 -22.31567383 48.29052734 C-22.83325195 45.02587891 -22.83325195 45.02587891 -22.84692383 41.18115234 C-22.85075073 40.49551208 -22.85457764 39.80987183 -22.85852051 39.10345459 C-22.86123694 37.654404 -22.85389426 36.20530415 -22.8371582 34.75634766 C-22.81587106 32.5608695 -22.83689504 30.36871222 -22.86254883 28.17333984 C-22.88061929 19.58074297 -22.43142322 13.06000874 -16.56958008 6.26708984 C-16.01141602 5.82107422 -15.45325195 5.37505859 -14.87817383 4.91552734 C-14.32258789 4.45404297 -13.76700195 3.99255859 -13.19458008 3.51708984 C-8.87735175 0.69877447 -5.11165945 0.03537125 0 0 Z " fill="#000000" transform="translate(22.315673828125,411.70947265625)"/>
<path d="M0 0 C1.25512894 -0.0127597 2.51025787 -0.02551941 3.80342102 -0.03866577 C5.16606491 -0.04172396 6.52871088 -0.04395143 7.89135742 -0.04541016 C9.29994337 -0.05184381 10.708528 -0.05857259 12.11711121 -0.06558228 C15.06671239 -0.07753787 18.01619662 -0.08126496 20.96582031 -0.08007812 C24.72840734 -0.07987521 28.49023675 -0.10715568 32.25264454 -0.14162254 C35.16191488 -0.16396384 38.07100509 -0.16791345 40.9803524 -0.16685867 C42.3665191 -0.1692046 43.75269153 -0.1779709 45.13877296 -0.19352341 C54.08591553 -0.28450476 60.69995285 -0.01065968 67.70776367 6.03662109 C68.37678711 6.87386719 68.37678711 6.87386719 69.05932617 7.72802734 C69.75155273 8.56140625 69.75155273 8.56140625 70.45776367 9.41162109 C74.64769862 15.82996093 74.0565608 22.74547446 74.05493164 30.11987305 C74.05932032 32.35005205 74.09572203 34.57827405 74.13354492 36.80810547 C74.13941106 38.23062478 74.14338181 39.65315343 74.14526367 41.07568359 C74.15348145 42.3635376 74.16169922 43.6513916 74.17016602 44.97827148 C73.60664411 48.82013164 72.74119002 49.98310426 69.68432617 52.29052734 C67.68432617 52.82177734 67.68432617 52.82177734 65.68432617 52.79052734 C65.02432617 52.80083984 64.36432617 52.81115234 63.68432617 52.82177734 C60.76767322 52.0470414 59.59158282 50.59714177 57.68432617 48.29052734 C57.17016602 45.71264648 57.17016602 45.71264648 57.14526367 42.82568359 C57.12206055 41.77832031 57.09885742 40.73095703 57.07495117 39.65185547 C57.0672168 38.01893555 57.0672168 38.01893555 57.05932617 36.35302734 C57.03371641 34.19796568 57.00014444 32.04298068 56.95776367 29.88818359 C56.95180176 28.93435791 56.94583984 27.98053223 56.93969727 26.99780273 C56.65805758 24.01204508 56.11420941 21.92915743 54.68432617 19.29052734 C51.65736565 17.36304153 49.27103527 17.03480079 45.71972656 17.01586914 C44.73512955 17.00633713 43.75053253 16.99680511 42.73609924 16.98698425 C41.67874069 16.98789566 40.62138214 16.98880707 39.53198242 16.98974609 C38.43969833 16.98546097 37.34741425 16.98117584 36.22203064 16.97676086 C33.91300143 16.97102022 31.60395414 16.97051534 29.29492188 16.97485352 C25.76360192 16.97801234 22.23312061 16.95455407 18.7019043 16.92919922 C16.45776473 16.92692609 14.21362291 16.92622279 11.96948242 16.92724609 C10.9141481 16.91803635 9.85881378 16.9088266 8.77149963 16.89933777 C1.68329129 16.83500463 1.68329129 16.83500463 -4.31567383 20.29052734 C-5.35368518 23.4045614 -5.4550975 25.64493214 -5.49145508 28.91162109 C-5.51530273 30.01183594 -5.53915039 31.11205078 -5.5637207 32.24560547 C-5.60661371 34.56312757 -5.6379054 36.88089405 -5.6574707 39.19873047 C-5.68518555 40.30023438 -5.71290039 41.40173828 -5.74145508 42.53662109 C-5.7560376 43.54394287 -5.77062012 44.55126465 -5.78564453 45.58911133 C-6.44883113 48.96919409 -7.66145119 50.16423353 -10.31567383 52.29052734 C-12.31567383 52.82177734 -12.31567383 52.82177734 -14.31567383 52.79052734 C-15.30567383 52.80599609 -15.30567383 52.80599609 -16.31567383 52.82177734 C-19.29180543 52.03124239 -20.41183589 50.69614447 -22.31567383 48.29052734 C-22.83325195 45.02587891 -22.83325195 45.02587891 -22.84692383 41.18115234 C-22.85075073 40.49551208 -22.85457764 39.80987183 -22.85852051 39.10345459 C-22.86123694 37.654404 -22.85389426 36.20530415 -22.8371582 34.75634766 C-22.81587106 32.5608695 -22.83689504 30.36871222 -22.86254883 28.17333984 C-22.88061929 19.58074297 -22.43142322 13.06000874 -16.56958008 6.26708984 C-16.01141602 5.82107422 -15.45325195 5.37505859 -14.87817383 4.91552734 C-14.32258789 4.45404297 -13.76700195 3.99255859 -13.19458008 3.51708984 C-8.87735175 0.69877447 -5.11165945 0.03537125 0 0 Z " fill="#000000" transform="translate(190.315673828125,343.70947265625)"/>
<path d="M0 0 C1.25512894 -0.0127597 2.51025787 -0.02551941 3.80342102 -0.03866577 C5.16606491 -0.04172396 6.52871088 -0.04395143 7.89135742 -0.04541016 C9.29994337 -0.05184381 10.708528 -0.05857259 12.11711121 -0.06558228 C15.06671239 -0.07753787 18.01619662 -0.08126496 20.96582031 -0.08007812 C24.72840734 -0.07987521 28.49023675 -0.10715568 32.25264454 -0.14162254 C35.16191488 -0.16396384 38.07100509 -0.16791345 40.9803524 -0.16685867 C42.3665191 -0.1692046 43.75269153 -0.1779709 45.13877296 -0.19352341 C54.08591553 -0.28450476 60.69995285 -0.01065968 67.70776367 6.03662109 C68.37678711 6.87386719 68.37678711 6.87386719 69.05932617 7.72802734 C69.75155273 8.56140625 69.75155273 8.56140625 70.45776367 9.41162109 C74.64769862 15.82996093 74.0565608 22.74547446 74.05493164 30.11987305 C74.05932032 32.35005205 74.09572203 34.57827405 74.13354492 36.80810547 C74.13941106 38.23062478 74.14338181 39.65315343 74.14526367 41.07568359 C74.15348145 42.3635376 74.16169922 43.6513916 74.17016602 44.97827148 C73.60664411 48.82013164 72.74119002 49.98310426 69.68432617 52.29052734 C67.68432617 52.82177734 67.68432617 52.82177734 65.68432617 52.79052734 C65.02432617 52.80083984 64.36432617 52.81115234 63.68432617 52.82177734 C60.76767322 52.0470414 59.59158282 50.59714177 57.68432617 48.29052734 C57.17016602 45.71264648 57.17016602 45.71264648 57.14526367 42.82568359 C57.12206055 41.77832031 57.09885742 40.73095703 57.07495117 39.65185547 C57.0672168 38.01893555 57.0672168 38.01893555 57.05932617 36.35302734 C57.03371641 34.19796568 57.00014444 32.04298068 56.95776367 29.88818359 C56.95180176 28.93435791 56.94583984 27.98053223 56.93969727 26.99780273 C56.65805758 24.01204508 56.11420941 21.92915743 54.68432617 19.29052734 C51.65736565 17.36304153 49.27103527 17.03480079 45.71972656 17.01586914 C44.73512955 17.00633713 43.75053253 16.99680511 42.73609924 16.98698425 C41.67874069 16.98789566 40.62138214 16.98880707 39.53198242 16.98974609 C38.43969833 16.98546097 37.34741425 16.98117584 36.22203064 16.97676086 C33.91300143 16.97102022 31.60395414 16.97051534 29.29492188 16.97485352 C25.76360192 16.97801234 22.23312061 16.95455407 18.7019043 16.92919922 C16.45776473 16.92692609 14.21362291 16.92622279 11.96948242 16.92724609 C10.9141481 16.91803635 9.85881378 16.9088266 8.77149963 16.89933777 C1.68329129 16.83500463 1.68329129 16.83500463 -4.31567383 20.29052734 C-5.35368518 23.4045614 -5.4550975 25.64493214 -5.49145508 28.91162109 C-5.51530273 30.01183594 -5.53915039 31.11205078 -5.5637207 32.24560547 C-5.60661371 34.56312757 -5.6379054 36.88089405 -5.6574707 39.19873047 C-5.68518555 40.30023438 -5.71290039 41.40173828 -5.74145508 42.53662109 C-5.7560376 43.54394287 -5.77062012 44.55126465 -5.78564453 45.58911133 C-6.44883113 48.96919409 -7.66145119 50.16423353 -10.31567383 52.29052734 C-12.31567383 52.82177734 -12.31567383 52.82177734 -14.31567383 52.79052734 C-15.30567383 52.80599609 -15.30567383 52.80599609 -16.31567383 52.82177734 C-19.29180543 52.03124239 -20.41183589 50.69614447 -22.31567383 48.29052734 C-22.83325195 45.02587891 -22.83325195 45.02587891 -22.84692383 41.18115234 C-22.85075073 40.49551208 -22.85457764 39.80987183 -22.85852051 39.10345459 C-22.86123694 37.654404 -22.85389426 36.20530415 -22.8371582 34.75634766 C-22.81587106 32.5608695 -22.83689504 30.36871222 -22.86254883 28.17333984 C-22.88061929 19.58074297 -22.43142322 13.06000874 -16.56958008 6.26708984 C-16.01141602 5.82107422 -15.45325195 5.37505859 -14.87817383 4.91552734 C-14.32258789 4.45404297 -13.76700195 3.99255859 -13.19458008 3.51708984 C-8.87735175 0.69877447 -5.11165945 0.03537125 0 0 Z " fill="#000000" transform="translate(78.315673828125,343.70947265625)"/>
<path d="M0 0 C2.91893524 2.02080132 3.81566079 3.18432913 4.59765625 6.64453125 C4.79681641 7.81048828 4.79681641 7.81048828 5 9 C6.24716797 9.25523437 6.24716797 9.25523437 7.51953125 9.515625 C8.60621094 9.75796875 9.69289063 10.0003125 10.8125 10.25 C12.43091797 10.59804687 12.43091797 10.59804687 14.08203125 10.953125 C17.34769778 12.12474298 18.30203148 13.03565362 20 16 C21.29168742 19.50600871 21.11091693 20.72534855 19.6875 24.25 C18 27 18 27 16 28 C8.61106677 28.69342296 2.03336181 28.67391333 -4 24 C-8.8722037 19.28893923 -12.08909765 15.53500484 -12.3125 8.5625 C-12.25655778 5.4399071 -12.11157757 4.19061168 -10.5 1.4375 C-6.9675333 -0.59366835 -3.97963085 -0.80900093 0 0 Z " fill="#000000" transform="translate(432,218)"/>
<path d="M0 0 C2.5 1.8125 2.5 1.8125 4 4 C4 4.99 4 5.98 4 7 C4.81984375 6.95359375 5.6396875 6.9071875 6.484375 6.859375 C7.56203125 6.82328125 8.6396875 6.7871875 9.75 6.75 C11.35101563 6.68039063 11.35101563 6.68039063 12.984375 6.609375 C16 7 16 7 18.359375 8.765625 C20.55534824 11.75633142 20.57253407 13.50189243 20.3984375 17.09765625 C19.79104423 19.99766139 18.33500208 21.28308671 16 23 C13.08999203 24.45500399 10.4910667 24.20897384 7.25 24.25 C6.03828125 24.27578125 4.8265625 24.3015625 3.578125 24.328125 C-2.86951094 23.73685708 -6.81017094 20.78837606 -11 16 C-12.35318907 11.94043278 -12.52857053 8.24388509 -12 4 C-9.23395044 -0.72533467 -5.04198182 -1.04352493 0 0 Z " fill="#000000" transform="translate(384,220)"/>
<path d="M0 0 C1.21429688 -0.02578125 2.42859375 -0.0515625 3.6796875 -0.078125 C8.50304354 0.38124224 10.98224722 2.16901764 14.4375 5.4375 C16.84362793 9.44771322 16.71480176 11.6053111 16.125 16.25 C14.625 18.75 14.625 18.75 12.125 20.25 C7.8386488 20.92270703 4.81830732 20.71220488 1.125 18.25 C-1.69103038 18.3789346 -1.69103038 18.3789346 -4.75 18.875 C-8.64880356 19.25260809 -10.46994776 19.42136826 -14.125 17.875 C-16.3144972 14.5907542 -16.64329211 12.34502532 -16.4375 8.44140625 C-15.4363301 4.54101518 -13.22197159 3.35006061 -9.875 1.25 C-6.42834258 0.10111419 -3.63148095 0.0460653 0 0 Z " fill="#000000" transform="translate(435.875,257.75)"/>
<path d="M0 0 C1.21429688 -0.02578125 2.42859375 -0.0515625 3.6796875 -0.078125 C8.50304354 0.38124224 10.98224722 2.16901764 14.4375 5.4375 C16.84362793 9.44771322 16.71480176 11.6053111 16.125 16.25 C14.625 18.75 14.625 18.75 12.125 20.25 C7.8386488 20.92270703 4.81830732 20.71220488 1.125 18.25 C-1.69103038 18.3789346 -1.69103038 18.3789346 -4.75 18.875 C-8.64880356 19.25260809 -10.46994776 19.42136826 -14.125 17.875 C-16.3144972 14.5907542 -16.64329211 12.34502532 -16.4375 8.44140625 C-15.4363301 4.54101518 -13.22197159 3.35006061 -9.875 1.25 C-6.42834258 0.10111419 -3.63148095 0.0460653 0 0 Z " fill="#000000" transform="translate(379.875,253.75)"/>
<path d="M0 0 C2.5 1.5 2.5 1.5 4 4 C4.791013 8.02098277 4.62153384 10.96411027 2.5 14.5 C-1.03588973 16.62153384 -3.97901723 16.791013 -8 16 C-10.5 14.5 -10.5 14.5 -12 12 C-12.791013 7.97901723 -12.62153384 5.03588973 -10.5 1.5 C-6.96411027 -0.62153384 -4.02098277 -0.791013 0 0 Z " fill="#000000" transform="translate(448,384)"/>
<path d="M0 0 C2.5 1.5 2.5 1.5 4 4 C4.791013 8.02098277 4.62153384 10.96411027 2.5 14.5 C-1.03588973 16.62153384 -3.97901723 16.791013 -8 16 C-10.5 14.5 -10.5 14.5 -12 12 C-12.791013 7.97901723 -12.62153384 5.03588973 -10.5 1.5 C-6.96411027 -0.62153384 -4.02098277 -0.791013 0 0 Z " fill="#000000" transform="translate(376,384)"/>
<path d="M0 0 C2.5 1.5 2.5 1.5 4 4 C4.791013 8.02098277 4.62153384 10.96411027 2.5 14.5 C-1.03588973 16.62153384 -3.97901723 16.791013 -8 16 C-10.5 14.5 -10.5 14.5 -12 12 C-12.791013 7.97901723 -12.62153384 5.03588973 -10.5 1.5 C-6.96411027 -0.62153384 -4.02098277 -0.791013 0 0 Z " fill="#000000" transform="translate(450,336)"/>
<path d="M0 0 C2.5 1.5 2.5 1.5 4 4 C4.791013 8.02098277 4.62153384 10.96411027 2.5 14.5 C-1.03588973 16.62153384 -3.97901723 16.791013 -8 16 C-10.5 14.5 -10.5 14.5 -12 12 C-12.791013 7.97901723 -12.62153384 5.03588973 -10.5 1.5 C-6.96411027 -0.62153384 -4.02098277 -0.791013 0 0 Z " fill="#000000" transform="translate(372,336)"/>
</svg>
